#tb 0: 1001/30000
#media_type 0: video
#codec_id 0: rawvideo
#dimensions 0: 128x128
#sar 0: 4/3
0,          1,          1,        1,    24576, 0x09aa74a6
0,          2,          2,        1,    24576, 0x77a9c199
0,          3,          3,        1,    24576, 0xaa69b4c5
0,          4,          4,        1,    24576, 0x9728f0c6
0,          5,          5,        1,    24576, 0x56354fce
